<svg xmlns="http://www.w3.org/2000/svg" width="512pt" height="512pt" fill="#fff" viewBox="0 0 512 512">
    <path d="m492 78.667969h-137.332031v-58.667969c0-11.046875-8.953125-20-20-20h-157.335938c-11.046875 0-20 8.953125-20 20v58.667969h-137.332031c-11.046875 0-20 8.953125-20 20v393.332031c0 11.046875 8.953125 20 20 20h472c11.046875 0 20-8.953125 20-20v-393.332031c0-11.046875-8.953125-20-20-20zm-294.667969-38.667969h117.332031v38.667969h-117.332031zm-20 78.667969h294.667969v117.332031h-78v-19.332031c0-11.046875-8.953125-20-20-20s-20 8.953125-20 20v19.332031h-196v-19.332031c0-11.046875-8.953125-20-20-20s-20 8.953125-20 20v19.332031h-78v-117.332031zm-137.332031 353.332031v-196h78v19.332031c0 11.046875 8.953125 20 20 20s20-8.953125 20-20v-19.332031h196v19.332031c0 11.046875 8.953125 20 20 20s20-8.953125 20-20v-19.332031h78v196zm0 0"/>
</svg>
